<?xml version="1.0" encoding="UTF-8"?><svg id="a" xmlns="http://www.w3.org/2000/svg" viewBox="0 0 100.479 141.528"><rect x="9.443" y="116.411" width="76.213" height="5" fill="#1d1d1b"/><rect x="9.443" y="125.356" width="76.16" height="5" fill="#1d1d1b"/><path d="M34.358,33.49H8.191V8.323h26.167v25.167ZM13.191,28.49h16.167v-15.167H13.191v15.167Z" fill="#1d1d1b"/><path d="M26.788,68.25H8.032v-15.667h18.756v15.667ZM13.032,63.25h8.756v-5.667h-8.756v5.667Z" fill="#1d1d1b"/><path d="M62.116,68.25h-29.511v-15.667h29.511v15.667ZM37.606,63.25h19.511v-5.667h-19.511v5.667Z" fill="#1d1d1b"/><path d="M62.116,89.023h-29.511v-15.667h29.511v15.667ZM37.606,84.023h19.511v-5.667h-19.511v5.667Z" fill="#1d1d1b"/><path d="M62.116,109.796h-29.511v-15.666h29.511v15.666ZM37.606,104.796h19.511v-5.666h-19.511v5.666Z" fill="#1d1d1b"/><path d="M26.788,89.023H8.032v-15.667h18.756v15.667ZM13.032,84.023h8.756v-5.667h-8.756v5.667Z" fill="#1d1d1b"/><path d="M26.788,109.796H8.032v-15.666h18.756v15.666ZM13.032,104.796h8.756v-5.666h-8.756v5.666Z" fill="#1d1d1b"/><polygon points="78.022 62.849 65.107 49.934 68.642 46.399 78.022 55.778 96.944 36.856 100.479 40.391 78.022 62.849" fill="#1d1d1b"/><polygon points="78.022 82.903 65.107 69.988 68.642 66.453 78.022 75.831 96.944 56.91 100.479 60.445 78.022 82.903" fill="#1d1d1b"/><polygon points="90.104 60.823 95.099 55.829 95.099 48.537 90.104 53.531 90.104 60.823" fill="#1d1d1b"/><path d="M90.104,74.072v62.462H4.994V4.994h63.754v21.356h21.356v14.297l4.994-4.994v-14.302h0L73.75.003l-.002.002v-.005H0v141.528h95.099v-72.45l-4.994,4.994ZM73.747,7.05l14.301,14.301h-14.301V7.05Z" fill="#1d1d1b"/></svg>