<?xml version="1.0" encoding="UTF-8"?><svg id="b" xmlns="http://www.w3.org/2000/svg" viewBox="0 0 128.288 141.766"><path d="M118.678,56.226h-18.258v5.046h18.258v-5.046ZM118.678,66.077h-18.258v5.046h18.258v-5.046ZM118.678,75.929h-18.258v5.046h18.258v-5.046ZM118.678,85.781h-24.745v5.046h24.745v-5.046ZM118.678,95.632h-32.432v5.046h32.432v-5.046ZM118.678,107.646h-37.237v5.046h37.237v-5.046ZM118.678,116.537h-47.327v5.046h47.327v-5.046ZM118.678,125.427H42.282v5.046h76.396v-5.046Z" fill="#fff"/><path d="M0,52.862c3.388-6.103,9.325-10.367,14.301-15.131,4.37-4.185,6.717-8.926,13.213-3.376,1.487,1.27,6.655,7.387,7.745,7.651.579.141,3.345-.923,4.328-1.09,3.508-.599,6.952,0,10.227,1.335,2.664-2.238,6.423-3.32,9.895-3.093.941.061,2.756.698,3.468.37,3.851-3.101,8.326-11.13,14.003-10.155,3.737.642,10.818,9.367,13.624,12.323,4.966,5.232,11.326,8.129,4.818,15.618-1.086,1.25-7.48,6.755-7.656,7.49,1.19,4.214.512,8.469-1.724,12.211.665,1.074,1.557,1.686,2.206,2.84,3.174,5.646-.738,12.017-7.008,12.173.11,4.302-3.751,8.378-8.168,7.929.364,4.453-3.513,8.314-7.925,8.172-.046,6.36-6.868,10.164-12.326,6.919-1.526-.907-2.596-2.368-3.892-3.552-1.437,1.274-2.509,3.026-4.281,3.883-5.429,2.626-11.615-1.021-11.798-7.028-4.678-.473-7.836-3.711-8.337-8.361-4.41.162-7.713-3.712-7.904-7.952-6.962-.307-10.43-7.886-6.097-13.444.773-.991,1.906-1.795,2.702-2.781-1.244-1.473-1.89-2.995-2.3-4.87-.193-.885-.066-2.365-.429-3.175-.514-1.147-5.727-5.438-6.966-6.729-1.449-1.509-2.762-3.187-3.718-5.052v-3.124ZM82.638,73.286c.767-1.856,1.253-3.8.908-5.83-.391-2.301-2.048-3.041.051-5.589,2.735-3.319,6.751-6.315,9.629-9.594l.231-.711-16.996-17.159c-.893-.263-1.791.704-2.471,1.276-2.43,2.043-7.09,8.42-9.671,9.311-1.491.515-2.531-.574-3.92-.757-7.117-.937-11.121,5.383-15.469,9.958-1.209,1.272-4.997,4.522-5.469,5.827-.721,1.992.891,4.471,3.07,4.275,2.194-.198,4.87-3.966,6.604-5.415,9.536-7.971,17.47-1.894,24.624,5.393.764.778,8.333,9.432,8.878,9.017ZM49.282,91.754c3.329.21,5.67,2.209,7.901,4.472,2.165,2.195,7.38,10.327,10.667,5.636,1.105-1.577.63-2.904-.458-4.314-1.889-2.448-8.251-6.668-8.522-9.514-.206-2.168,2.027-3.116,3.812-2.114,2.927,2.285,5.66,6.387,8.549,8.509,2.77,2.034,6.305-.583,5.113-3.673-.989-2.562-6.43-5.913-8.316-8.501-1.348-1.85-1.615-4.895,1.286-4.845,3.214.056,7.643,8.004,10.76,9.375,2.889,1.272,5.466-1.591,4.195-4.435-2.024-2.062-4.195-3.969-6.198-6.055-3.58-3.73-12.898-15.034-17.52-15.876-9.297-1.695-10.028,8.272-17.432,8.777-5.352.365-9.451-4.16-8.746-9.466.629-4.73,8.383-9.794,11.266-13.476-2.477-1.279-5.551-.49-8.049.355-1.127.381-2.181,1.395-3.427,1.053-.723-.198-2.077-1.356-2.697-1.885-2.914-2.485-5.328-6.009-8.271-8.545l-1.572-.103L5.525,53.222c-.559.618-.644,1.468-.298,2.222l10.489,10.412c.894,1.593-.039,2.766.148,4.165.108.81.875,1.469.955,2.303.173.131,2.718-2.681,3.137-2.986,4.473-3.263,11.437-1.391,12.851,4.173.178.7-.086,1.786.442,2.201,1.076.284,1.849.234,2.948.656,3.185,1.224,4.724,4.219,5.158,7.457,4.382.1,7.698,3.597,7.926,7.93ZM24.695,72.617c-.585.057-1.261.329-1.754.667-1.42.974-4.348,4.034-5.65,5.402-.945.993-3.375,3.451-3.545,4.634-.404,2.802,2.475,4.85,4.984,3.293,1.319-.819,8.279-7.739,8.999-9.02,1.313-2.337-.285-5.243-3.034-4.975ZM32.126,80.791c-.489.102-.987.476-1.381.779-1.11.855-8.222,8.041-8.605,8.934-.852,1.985.214,4.458,2.485,4.659,2.204.195,2.457-1.169,3.837-2.421,1.84-1.669,7.665-6.166,7.829-8.527.168-2.426-1.873-3.9-4.165-3.424ZM40.785,88.711c-.347.047-.912.291-1.23.469-1.327.74-7.92,7.308-8.859,8.68-2.3,3.361.802,6.652,4.124,4.846,1.079-.587,8.477-7.961,9.01-9.009,1.235-2.427-.257-5.366-3.045-4.986ZM48.462,96.889c-.605.127-1.597.856-2.099,1.263-1.382,1.12-7.076,6.756-7.789,8.068-1.983,3.647,1.543,6.559,4.889,4.169,1.678-1.199,7.376-6.845,8.293-8.525,1.458-2.67-.141-5.637-3.294-4.974ZM56.7,103.081c-.725,2.046-2.473,3.556-4.083,4.925,1.08.878,2.389,2.907,3.774,3.188,2.936.596,5.143-2.384,3.54-4.981-.122-.197-2.469-2.786-2.63-2.896-.203-.139-.238-.334-.601-.236Z"/><path d="M128.282,21.751l.005,120.015H32.913v-21.385h5.045v16.339h85.045V26.431h-21.381V5.046h-63.663v25.47h-5.045V0h73.873l21.496,21.751ZM106.906,7.449v13.936h13.934l-13.934-13.936Z"/><rect x="42.282" y="125.427" width="76.396" height="5.046"/><rect x="71.351" y="116.537" width="47.327" height="5.046"/><rect x="81.441" y="107.646" width="37.237" height="5.046"/><rect x="86.246" y="95.632" width="32.432" height="5.046"/><rect x="93.933" y="85.781" width="24.745" height="5.046"/><rect x="100.42" y="56.226" width="18.258" height="5.046"/><rect x="100.42" y="66.077" width="18.258" height="5.046"/><rect x="100.42" y="75.929" width="18.258" height="5.046"/></svg>