<?xml version="1.0" encoding="UTF-8"?><svg id="a" xmlns="http://www.w3.org/2000/svg" viewBox="0 0 114.962 141.84"><path d="M105.177,56.263h-18.258v5.046h18.258v-5.046ZM105.177,66.114h-18.258v5.046h18.258v-5.046ZM105.177,75.966h-18.258v5.046h18.258v-5.046ZM105.177,85.817h-24.745v5.046h24.745v-5.046ZM105.177,95.669h-32.432v5.046h32.432v-5.046ZM105.177,107.683h-37.237v5.046h37.237v-5.046ZM105.177,116.574h-47.327v5.046h47.327v-5.046ZM105.177,125.464H28.781v5.046h76.396v-5.046Z" fill="#1d1d1b"/><path d="M114.781,21.788l.005,120.015H19.411v-31.944h5.045v26.898h85.045V26.468h-21.381V5.083H24.456v32.749h-5.045V.037h73.873l21.496,21.751ZM93.405,7.486v13.936h13.934l-13.934-13.936Z" fill="#1d1d1b"/><rect x="28.781" y="125.464" width="76.396" height="5.046" fill="#1d1d1b"/><rect x="57.85" y="116.574" width="47.327" height="5.046" fill="#1d1d1b"/><rect x="67.94" y="107.683" width="37.237" height="5.046" fill="#1d1d1b"/><rect x="80.432" y="85.817" width="24.745" height="5.046" fill="#1d1d1b"/><rect x="86.919" y="56.263" width="18.258" height="5.046" fill="#1d1d1b"/><rect x="86.919" y="66.114" width="18.258" height="5.046" fill="#1d1d1b"/><rect x="86.919" y="75.966" width="18.258" height="5.046" fill="#1d1d1b"/><path d="M35.959,62.291c.223,0,.447.009.671.028l.261.021c3.021.33,5.323,2.317,6.806,3.803,5.182,5.182,5.182,10.219,0,15.402-2.544,2.551-5.167,3.844-7.795,3.844-.182,0-.365-.006-.549-.018-3.108-.208-5.514-2.283-7.054-3.827-5.182-5.178-5.181-10.216,0-15.401,2.589-2.592,5.095-3.852,7.66-3.852h0M35.936,80.209c1.596,0,3.395-1.627,4.095-2.327,3.43-3.434,2.733-5.339,0-8.073-1.479-1.479-2.72-2.238-3.792-2.32-.062-.005-.128-.006-.195-.006-1.162,0-2.534.782-4.077,2.326-3.43,3.434-2.733,5.339,0,8.073,1.479,1.479,2.72,2.238,3.791,2.32.058.005.117.007.177.007" fill="#1d1d1b"/><path d="M36.231,37.832c5.263,0,8.419,2.694,9.38,8.007l.066.363.328.169c.676.349,1.362.743,2.04,1.171l.429.271.411-.298c2.158-1.563,4.248-2.355,6.213-2.355,2.245,0,4.424,1.042,6.478,3.097,3.873,3.873,4.118,8.022.751,12.685l-.296.41.269.428c.425.678.825,1.373,1.188,2.065l.17.324.36.066c5.321.974,8.005,4.155,7.979,9.453-.028,5.4-2.689,8.509-8.135,9.504l-.357.065-.17.321c-.365.687-.767,1.382-1.196,2.066l-.268.427.295.409c3.36,4.668,3.088,8.824-.832,12.706-2.104,2.083-4.318,3.14-6.581,3.14-1.946,0-4.008-.776-6.13-2.306l-.409-.295-.428.267c-.691.432-1.382.83-2.053,1.181l-.324.17-.065.36c-.984,5.411-4.206,8.155-9.577,8.155-5.263,0-8.419-2.694-9.38-8.007l-.066-.363-.328-.169c-.676-.349-1.362-.743-2.04-1.171l-.429-.271-.411.298c-2.156,1.563-4.246,2.355-6.211,2.355-2.246,0-4.426-1.042-6.479-3.097-3.873-3.873-4.118-8.022-.748-12.684l.297-.411-.271-.429c-.422-.668-.822-1.362-1.19-2.063l-.17-.324-.36-.066C2.658,82.482-.026,79.301,0,74.003c.028-5.4,2.689-8.509,8.135-9.504l.358-.065.17-.322c.361-.682.763-1.378,1.196-2.068l.268-.427-.295-.409c-3.344-4.643-3.072-8.799.83-12.705,2.092-2.088,4.301-3.147,6.567-3.147,1.95,0,4.017.779,6.144,2.315l.409.296.428-.268c.691-.432,1.382-.83,2.053-1.181l.324-.17.065-.36c.984-5.411,4.206-8.155,9.577-8.155M23.61,53.82c-.653,0-1.277-.244-1.757-.687-1.935-1.787-3.361-2.584-4.622-2.584-1.293,0-2.116.823-2.914,1.621-1.759,1.764-2.805,3.438.966,7.533.836.911.914,2.296.185,3.292-1.215,1.66-2.186,3.304-2.886,4.887-.382.868-1.205,1.457-2.149,1.537-4.864.421-5.249,2.177-5.261,4.614-.013,2.398.346,4.125,5.103,4.505.961.076,1.794.673,2.174,1.562.678,1.571,1.64,3.204,2.86,4.852.739.997.665,2.384-.176,3.297-3.81,4.136-2.787,5.79-1.053,7.524.725.727,1.547,1.551,2.831,1.551s2.726-.806,4.687-2.614c.481-.443,1.105-.687,1.758-.687.561,0,1.093.174,1.54.505,1.637,1.209,3.267,2.165,4.847,2.844.888.379,1.487,1.214,1.562,2.18.371,4.746,2.154,5.124,4.447,5.124h.053c2.356-.008,4.192-.403,4.612-5.281.083-.949.674-1.775,1.541-2.155,1.57-.684,3.211-1.65,4.875-2.869.45-.328.98-.501,1.535-.501.654,0,1.279.244,1.759.686,1.936,1.791,3.362,2.59,4.624,2.59,1.294,0,2.116-.824,2.91-1.621,1.763-1.763,2.811-3.437-.964-7.538-.836-.911-.914-2.296-.185-3.291,1.218-1.659,2.189-3.302,2.886-4.885.382-.868,1.205-1.457,2.148-1.537h0c4.859-.422,5.243-2.178,5.255-4.614.013-2.398-.346-4.125-5.103-4.505-.961-.076-1.794-.673-2.174-1.562-.678-1.571-1.64-3.204-2.86-4.852-.738-.996-.662-2.383.179-3.297,3.812-4.135,2.789-5.79,1.049-7.529-.725-.725-1.547-1.547-2.829-1.547-1.28,0-2.725.806-4.685,2.614-.479.441-1.103.684-1.757.684-.558,0-1.09-.175-1.538-.505-1.637-1.209-3.267-2.165-4.847-2.844-.888-.379-1.487-1.214-1.562-2.18-.369-4.73-2.072-5.107-4.437-5.123h-.063c-2.356.008-4.192.402-4.612,5.28-.083.949-.674,1.775-1.542,2.156-1.578.691-3.22,1.656-4.878,2.869-.449.328-.979.501-1.533.501" fill="#1d1d1b"/></svg>