<?xml version="1.0" encoding="UTF-8"?><svg xmlns="http://www.w3.org/2000/svg" viewBox="0 0 113.94 141.766"><g id="a"><path d="M54.423,33.49h-26.167V8.323h26.167v25.167ZM33.257,28.49h16.167v-15.167h-16.167v15.167Z" fill="#1d1d1b"/></g><g id="b"><path d="M113.935,21.751l.005,120.015H18.566v-48.076h5.045v43.03h85.045V26.431h-21.381V5.046H23.611v33.418h-5.045V0h73.873l21.496,21.751ZM92.559,7.449v13.936h13.934l-13.934-13.936Z"/><rect x="27.935" y="125.427" width="76.396" height="5.046"/><rect x="86.073" y="56.226" width="18.258" height="5.046"/><rect x="86.073" y="66.077" width="18.258" height="5.046"/><rect x="27.935" y="125.427" width="76.396" height="5.046"/><rect x="27.935" y="107.646" width="76.396" height="5.046"/><rect x="27.935" y="116.537" width="76.396" height="5.046"/><rect x="47.417" y="95.632" width="56.914" height="5.046"/><rect x="86.073" y="56.226" width="18.258" height="5.046"/><rect x="86.073" y="66.077" width="18.258" height="5.046"/><rect x="62.94" y="85.781" width="41.391" height="5.046"/><rect x="76.977" y="75.929" width="27.354" height="5.046"/><path d="M35.255,93.69c-.399,0-.799-.096-1.166-.288-.821-.433-1.334-1.284-1.334-2.212v-10.389H2.5c-1.381,0-2.5-1.119-2.5-2.5v-24.449c0-1.381,1.119-2.5,2.5-2.5h30.255v-10.389c0-.928.514-1.779,1.334-2.212.821-.432,1.813-.375,2.579.15l36.644,25.113c.681.466,1.087,1.237,1.087,2.062s-.406,1.596-1.087,2.062l-36.644,25.114c-.424.29-.917.438-1.413.438ZM5,75.802h30.255c1.381,0,2.5,1.119,2.5,2.5v8.145l29.722-20.369-29.722-20.369v8.145c0,1.381-1.119,2.5-2.5,2.5H5v19.449Z"/></g></svg>