<?xml version="1.0" encoding="UTF-8"?><svg xmlns="http://www.w3.org/2000/svg" viewBox="0 0 129.108 141.528"><g id="a"><rect x="43.453" y="116.411" width="76.213" height="5" fill="#1d1d1b"/><rect x="43.453" y="125.356" width="76.16" height="5" fill="#1d1d1b"/><rect x="91.086" y="72.186" width="28.944" height="5" fill="#1d1d1b"/><rect x="85.967" y="63.241" width="34.064" height="5" fill="#1d1d1b"/><rect x="96.371" y="81.131" width="23.636" height="5" fill="#1d1d1b"/><path d="M129.108,21.351L107.76.003l-.002.002v-.005H34.01v19.083h4.994V4.994h63.754v21.356h21.356v110.184H39.004v-31.58h-4.994v36.574h95.099V21.351h0ZM107.757,21.351V7.05l14.301,14.301h-14.301Z" fill="#1d1d1b"/></g><g id="b"><path d="M67.199,100.918h-19.273c-6.771,0-12.279-5.509-12.279-12.279v-.569h-3.781c-8.542,0-15.491-6.949-15.491-15.491v-16.63h-.57c-6.771,0-12.279-5.508-12.279-12.279v-6.424c0-6.771,5.508-12.279,12.279-12.279h51.395c6.771,0,12.278,5.508,12.278,12.279v6.424c0,6.771-5.508,12.279-12.278,12.279H21.66v16.63c0,5.628,4.579,10.206,10.206,10.206h3.781v-.569c0-6.771,5.508-12.279,12.279-12.279h19.273c6.771,0,12.278,5.509,12.278,12.279v6.424c0,6.771-5.508,12.279-12.278,12.279ZM47.926,75.221c-3.856,0-6.994,3.138-6.994,6.994v6.424c0,3.856,3.137,6.994,6.994,6.994h19.273c3.856,0,6.993-3.138,6.993-6.994v-6.424c0-3.856-3.137-6.994-6.993-6.994h-19.273ZM15.805,30.251c-3.856,0-6.994,3.137-6.994,6.994v6.424c0,3.856,3.137,6.994,6.994,6.994h51.395c3.856,0,6.993-3.138,6.993-6.994v-6.424c0-3.856-3.137-6.994-6.993-6.994H15.805Z" fill="#1d1d1b"/></g></svg>