<?xml version="1.0" encoding="UTF-8"?><svg xmlns="http://www.w3.org/2000/svg" viewBox="0 0 120.24 141.695"><g id="a"><path d="M36.079,63.934c-9.37-2.395-23.247-.763-27.26,9.452-1.534,3.904-1.08,13.929-.926,18.503.018.536.244,1.015.251,1.546H0v18.928h17.246v9.105h5.269v-9.105h4.072v-18.928h-4.072v-13.417h-5.269v13.417l-3.356-.004c-.214-.129-.497-.919-.593-1.197-.832-2.386-.534-14.156.289-16.715,1.335-4.151,6.027-7.101,10.25-7.477,6.597-.587,15.392-.327,18.362,6.782,1.228,2.938,1.303,12.936.853,16.273-.239,1.775-1.248,3.244-2.778,4.17-.257.155-.481.504-1.831.804h-4.906l-.004,25.397h5.27v-20.485c.522-.117,2.002-.601,3.037-1.035,3.879-1.631,6.24-5.08,6.553-9.258.838-11.161.609-23.452-12.314-26.755ZM21.318,98.227v9.344H5.27v-9.344h16.048Z" fill="#1d1d1b"/><path d="M74.853,39.106h-26.149V13.354h26.149v25.753ZM53.704,34.106h16.149v-15.753h-16.149v15.753Z" fill="#1d1d1b"/><path d="M75.135,68.417h-18.756v-15.667h18.756v15.667ZM61.379,63.417h8.756v-5.667h-8.756v5.667Z" fill="#1d1d1b"/><path d="M110.463,68.417h-29.511v-15.667h29.511v15.667ZM85.952,63.417h19.511v-5.667h-19.511v5.667Z" fill="#1d1d1b"/><path d="M110.463,89.19h-29.511v-15.667h29.511v15.667ZM85.952,84.19h19.511v-5.667h-19.511v5.667Z" fill="#1d1d1b"/><path d="M110.463,109.962h-29.511v-15.666h29.511v15.666ZM85.952,104.962h19.511v-5.666h-19.511v5.666Z" fill="#1d1d1b"/><path d="M75.135,89.19h-18.756v-15.667h18.756v15.667ZM61.379,84.19h8.756v-5.667h-8.756v5.667Z" fill="#1d1d1b"/><path d="M75.135,109.962h-18.756v-15.666h18.756v15.666ZM61.379,104.962h8.756v-5.666h-8.756v5.666Z" fill="#1d1d1b"/><rect x="80.578" y="13.354" width="29.938" height="5" fill="#1d1d1b"/><rect x="80.578" y="23.73" width="29.938" height="5" fill="#1d1d1b"/><rect x="80.578" y="34.106" width="29.938" height="5" fill="#1d1d1b"/><polygon points="120.24 141.695 25.03 141.695 25.03 126.25 30.03 126.25 30.03 136.695 115.24 136.695 115.24 5 30.03 5 30.03 15.444 25.03 15.444 25.03 0 120.24 0 120.24 141.695" fill="#1d1d1b"/><rect x="56.39" y="116.578" width="54.126" height="5" fill="#1d1d1b"/><rect x="34.356" y="125.439" width="76.16" height="5" fill="#1d1d1b"/></g><g id="b"><path d="M42.261,44.407H13.788v-2.5c0-7.597,6.387-13.778,14.237-13.778s14.236,6.181,14.236,13.778v2.5ZM19.169,39.407h17.71c-1.136-3.626-4.676-6.278-8.855-6.278s-7.72,2.652-8.855,6.278Z" fill="#1d1d1b"/><path d="M28.144,61.206c-6.51,0-11.806-6.618-11.806-14.752h5c0,5.286,3.117,9.752,6.806,9.752s6.806-4.466,6.806-9.752h5c0,8.134-5.296,14.752-11.806,14.752Z" fill="#1d1d1b"/></g></svg>