<?xml version="1.0" encoding="UTF-8"?><svg id="a" xmlns="http://www.w3.org/2000/svg" viewBox="0 0 184.439 185.407"><path d="M75.27,154.686h2.305c-2.631,3.243-4.215,7.369-4.215,11.86s1.584,8.617,4.215,11.86h-44.069c2.631-3.243,4.215-7.369,4.215-11.86s-1.584-8.617-4.215-11.86h41.764ZM80.359,166.546c0-6.54,5.32-11.86,11.86-11.86s11.86,5.32,11.86,11.86-5.32,11.86-11.86,11.86-11.86-5.32-11.86-11.86ZM106.864,154.686h44.069c-2.631,3.243-4.215,7.369-4.215,11.86s1.584,8.617,4.215,11.86h-44.069c2.631-3.243,4.215-7.369,4.215-11.86s-1.584-8.617-4.215-11.86ZM78.77,121.581h26.899v26.104h-26.899v-26.104ZM22.361,147.686l-7,.338C6.63,149.672,0,157.344,0,166.546c0,10.399,8.461,18.86,18.86,18.86h146.718c10.399,0,18.86-8.461,18.86-18.86,0-9.202-6.629-16.875-15.36-18.522l-7-.338h-49.409v-29.604c0-1.933-1.567-3.5-3.5-3.5h-33.899c-1.933,0-3.5,1.567-3.5,3.5v29.604H22.361ZM7,166.546c0-6.54,5.32-11.86,11.86-11.86s11.86,5.32,11.86,11.86-5.32,11.86-11.86,11.86-11.86-5.32-11.86-11.86ZM165.579,178.407c-6.54,0-11.86-5.32-11.86-11.86s5.32-11.86,11.86-11.86,11.86,5.32,11.86,11.86-5.32,11.86-11.86,11.86Z"/><path d="M92.22,31.946c-8.351,0-15.146,6.794-15.146,15.146s6.794,15.146,15.146,15.146,15.145-6.794,15.145-15.146-6.794-15.146-15.145-15.146ZM92.22,55.237c-4.491,0-8.146-3.654-8.146-8.146s3.654-8.146,8.146-8.146,8.145,3.654,8.145,8.146-3.654,8.146-8.145,8.146Z"/><path d="M177.944,73.396c-3.35-3.35-7.59-5.471-12.181-6.196v-23.245h-25.816v-8.508c0-1.933-1.567-3.5-3.5-3.5h-10.331c-1.047-2.342-2.334-4.566-3.848-6.648l4.851-8.402c.967-1.674.393-3.814-1.281-4.781L105.667.469c-1.672-.964-3.814-.394-4.781,1.281l-4.862,8.421c-2.55-.265-5.06-.265-7.609,0l-4.861-8.421c-.464-.804-1.229-1.391-2.125-1.631-.897-.241-1.853-.115-2.656.35l-20.17,11.646c-1.674.967-2.248,3.107-1.281,4.781l4.851,8.402c-1.514,2.082-2.801,4.306-3.848,6.648h-10.332c-1.933,0-3.5,1.567-3.5,3.5v8.508h-25.816v23.256c-4.462.708-8.75,2.754-12.181,6.186-4.188,4.189-6.495,9.758-6.495,15.681s2.307,11.493,6.496,15.68c1.366,1.367,3.583,1.367,4.95,0,1.367-1.367,1.367-3.583,0-4.949-2.866-2.866-4.445-6.677-4.445-10.731s1.579-7.865,4.445-10.731c5.917-5.918,15.545-5.918,21.462,0,2.867,2.866,4.445,6.677,4.445,10.731s-1.579,7.865-4.445,10.731c-1.367,1.366-1.367,3.582,0,4.949.684.684,1.579,1.025,2.475,1.025s1.792-.342,2.475-1.025c4.189-4.188,6.496-9.757,6.496-15.68s-2.307-11.492-6.495-15.681c-3.431-3.431-7.719-5.478-12.181-6.186v-16.256h18.816v7.783c0,1.933,1.567,3.5,3.5,3.5h10.332c1.101,2.459,2.467,4.788,4.085,6.963l-5.088,8.812c-.966,1.674-.393,3.814,1.281,4.781l20.17,11.645c.804.466,1.76.591,2.656.35.897-.24,1.661-.826,2.125-1.63l5.256-9.104c2.273.209,4.546.209,6.82,0l5.257,9.104c.648,1.123,1.825,1.75,3.034,1.75.594,0,1.196-.151,1.747-.47l20.17-11.645c.804-.464,1.391-1.229,1.631-2.125s.114-1.852-.35-2.656l-5.089-8.812c1.618-2.174,2.984-4.503,4.086-6.963h10.331c1.933,0,3.5-1.567,3.5-3.5v-7.783h18.816v16.245c-4.592.725-8.831,2.846-12.181,6.196-4.189,4.188-6.496,9.758-6.496,15.681s2.308,11.493,6.496,15.68c.684.684,1.579,1.025,2.475,1.025s1.792-.342,2.475-1.025c1.367-1.367,1.367-3.583,0-4.949-2.866-2.866-4.445-6.677-4.445-10.731s1.579-7.865,4.445-10.731c2.866-2.866,6.678-4.445,10.731-4.445s7.864,1.579,10.731,4.445c5.917,5.917,5.917,15.545,0,21.462-1.367,1.366-1.367,3.583,0,4.949,1.367,1.367,3.582,1.367,4.949,0,8.646-8.646,8.646-22.714,0-31.361ZM132.947,55.237h-9.182c-1.465,0-2.775.913-3.283,2.287-1.225,3.314-3.021,6.373-5.338,9.09-.962,1.127-1.108,2.738-.368,4.021l4.53,7.846-14.107,8.145-4.667-8.082c-.632-1.094-1.794-1.75-3.03-1.75-.182,0-.364.014-.548.043-3.132.496-6.336.495-9.469,0-1.427-.223-2.853.453-3.578,1.707l-4.666,8.082-14.108-8.146,4.53-7.846c.741-1.283.593-2.894-.368-4.021-2.318-2.719-4.114-5.777-5.337-9.09-.508-1.375-1.818-2.288-3.283-2.288h-9.182v-16.291h9.182c1.465,0,2.775-.913,3.283-2.288,1.187-3.212,2.906-6.183,5.112-8.831.938-1.127,1.075-2.72.342-3.99l-4.278-7.41,14.108-8.146,4.286,7.425c.731,1.267,2.175,1.941,3.617,1.701,3.399-.577,6.752-.577,10.15,0,1.443.244,2.885-.434,3.617-1.701l4.287-7.425,14.107,8.146-4.278,7.41c-.733,1.271-.597,2.863.342,3.99,2.207,2.648,3.927,5.619,5.112,8.831.508,1.375,1.817,2.288,3.283,2.288h9.182v16.291Z"/></svg>