<?xml version="1.0" encoding="UTF-8"?><svg id="a" xmlns="http://www.w3.org/2000/svg" viewBox="0 0 202.736 214.124"><g id="b"><path d="M48.888,17.266h-29.467c-2.115,0-3.836,1.721-3.836,3.836v34.551c0,2.115,1.721,3.836,3.836,3.836s3.836-1.721,3.836-3.836v-30.715h21.795v6.503c0,2.115,1.721,3.836,3.836,3.836s3.836-1.721,3.836-3.836v-10.339c0-2.115-1.721-3.836-3.836-3.836h0Z"/><path d="M101.368,0c-.922,0-1.815.333-2.514.937L1.32,85.547c-1.597,1.386-1.77,3.813-.384,5.411.727.84,1.783,1.322,2.897,1.322.922,0,1.814-.333,2.513-.936L101.367,8.914l95.02,82.429c.699.605,1.591.938,2.513.938,1.114,0,2.17-.482,2.899-1.323,1.386-1.598,1.214-4.025-.384-5.411L103.882.938c-.698-.605-1.591-.938-2.514-.938h0Z"/><path d="M86.925,186.182H17.279c-1.933,0-3.5-1.567-3.5-3.5v-90.401c0-1.933,1.567-3.5,3.5-3.5s3.5,1.567,3.5,3.5v86.901h66.146c1.933,0,3.5,1.567,3.5,3.5s-1.567,3.5-3.5,3.5Z"/><path d="M133.474,186.182h-29.069c-1.933,0-3.5-1.567-3.5-3.5s1.567-3.5,3.5-3.5h29.069c1.933,0,3.5,1.567,3.5,3.5s-1.567,3.5-3.5,3.5Z"/><path d="M185.457,186.182h-34.502c-1.933,0-3.5-1.567-3.5-3.5s1.567-3.5,3.5-3.5h31.002v-86.901c0-1.933,1.567-3.5,3.5-3.5s3.5,1.567,3.5,3.5v90.401c0,1.933-1.567,3.5-3.5,3.5Z"/></g><path id="c" d="M151.024,141.25c-1.933,0-3.5,1.567-3.5,3.5v33.824c0,15.742-12.808,28.549-28.55,28.549s-28.549-12.807-28.549-28.549v-21.896h2.349c10.202,0,18.5-8.299,18.5-18.5v-21.867h2.292c4.912,0,8.908-3.996,8.908-8.908v-3.712c0-4.912-3.996-8.908-8.908-8.908h-9.501v-20.564c0-1.933-1.566-3.5-3.5-3.5s-3.5,1.567-3.5,3.5v20.564h-20.281v-20.564c0-1.933-1.567-3.5-3.5-3.5s-3.5,1.567-3.5,3.5v20.564h-9.5c-4.912,0-8.909,3.996-8.909,8.908v3.712c0,4.912,3.997,8.908,8.909,8.908h2.292v21.867c0,10.201,8.299,18.5,18.5,18.5h2.349v21.896c0,19.602,15.947,35.549,35.549,35.549s35.55-15.947,35.55-35.549v-33.824c0-1.933-1.567-3.5-3.5-3.5ZM58.376,107.404v-3.712c0-1.052.856-1.908,1.909-1.908h53.282c1.052,0,1.908.856,1.908,1.908v3.712c0,1.052-.856,1.908-1.908,1.908h-53.282c-1.052,0-1.909-.856-1.909-1.908ZM69.576,138.179v-21.867h34.698v21.867c0,6.341-5.159,11.5-11.5,11.5h-11.697c-6.341,0-11.5-5.159-11.5-11.5Z"/></svg>