<?xml version="1.0" encoding="UTF-8"?><svg id="a" xmlns="http://www.w3.org/2000/svg" viewBox="0 0 201.666 154.437"><path d="M199.198,132.95l-10.934-16.193c-.024-.035-.057-.06-.082-.094.666-1.399,1.049-2.957,1.049-4.606V18.58c0-10.245-8.335-18.58-18.58-18.58H28.815C18.57,0,10.236,8.335,10.236,18.58v93.478c0,1.637.378,3.184,1.034,4.575-.14.173-.271.354-.379.554l-9.102,16.78c-2.484,4.581-2.372,10.651.279,15.107,2,3.363,5.135,5.292,8.602,5.293l180.298.069c3.698,0,6.949-2.13,8.923-5.845,2.6-4.891,2.322-11.177-.693-15.641ZM17.521,18.58c0-6.228,5.067-11.295,11.294-11.295h141.836c6.228,0,11.294,5.067,11.294,11.295v93.478c0,1.923-1.564,3.487-3.487,3.487H21.008c-1.923,0-3.487-1.564-3.487-3.487V18.58ZM193.458,145.172c-.393.739-1.238,1.979-2.486,1.979l-180.299-.069c-1.143,0-1.959-1.086-2.344-1.733-1.115-1.874-1.633-5.147-.135-7.908l8.434-15.551c1.34.599,2.82.94,4.38.94h157.451c1.59,0,3.096-.355,4.456-.976l10.247,15.174c1.7,2.517,1.437,6.002.298,8.144Z"/><path d="M161.401,131.153H31.202c-2.009,0-3.643,1.634-3.643,3.643s1.634,3.643,3.643,3.643h130.199c2.009,0,3.643-1.634,3.643-3.643s-1.634-3.643-3.643-3.643Z"/><path d="M61.849,57.636c-7.142,0-11.594-6.605-11.594-16.829,0-10.323,4.745-16.976,11.643-16.976,7.143,0,11.595,6.605,11.595,16.829s-4.745,16.976-11.644,16.976ZM61.898,28.625c-3.326,0-4.354,4.843-4.354,11.937,0,9.931,1.81,12.279,4.305,12.279,3.327,0,4.354-4.892,4.354-11.986,0-9.931-1.81-12.23-4.305-12.23Z"/><path d="M85.082,31.854c-1.81,1.125-4.354,2.348-6.507,3.082l-1.663-3.522,10.127-7.094h4.452v32.631h-6.409v-25.097Z"/><path d="M109.931,57.636c-7.142,0-11.594-6.605-11.594-16.829,0-10.323,4.745-16.976,11.642-16.976,7.142,0,11.595,6.605,11.595,16.829s-4.745,16.976-11.644,16.976ZM109.98,28.625c-3.326,0-4.353,4.843-4.353,11.937,0,9.931,1.809,12.279,4.304,12.279,3.326,0,4.355-4.892,4.355-11.986,0-9.931-1.811-12.23-4.306-12.23Z"/><path d="M137.568,57.636c-7.142,0-11.595-6.605-11.595-16.829,0-10.323,4.745-16.976,11.644-16.976,7.142,0,11.595,6.605,11.595,16.829s-4.746,16.976-11.644,16.976ZM137.617,28.625c-3.327,0-4.355,4.843-4.355,11.937,0,9.931,1.81,12.279,4.306,12.279,3.326,0,4.353-4.892,4.353-11.986,0-9.931-1.81-12.23-4.305-12.23Z"/><path d="M65.444,99c-7.142,0-11.594-6.605-11.594-16.829,0-10.323,4.745-16.976,11.643-16.976,7.143,0,11.595,6.605,11.595,16.829s-4.745,16.976-11.644,16.976ZM65.493,69.99c-3.326,0-4.354,4.843-4.354,11.937,0,9.931,1.81,12.279,4.305,12.279,3.327,0,4.354-4.892,4.354-11.986,0-9.931-1.81-12.23-4.305-12.23Z"/><path d="M88.677,73.219c-1.81,1.125-4.354,2.348-6.507,3.082l-1.663-3.522,10.127-7.094h4.452v32.63h-6.409v-25.096Z"/><path d="M113.527,99c-7.144,0-11.594-6.605-11.594-16.829,0-10.323,4.745-16.976,11.643-16.976,7.142,0,11.594,6.605,11.594,16.829s-4.745,16.976-11.642,16.976ZM113.575,69.99c-3.327,0-4.355,4.843-4.355,11.937,0,9.931,1.81,12.279,4.306,12.279,3.326,0,4.353-4.892,4.353-11.986,0-9.931-1.81-12.23-4.305-12.23Z"/><path d="M136.759,73.219c-1.81,1.125-4.355,2.348-6.506,3.082l-1.663-3.522,10.126-7.094h4.452v32.63h-6.409v-25.096Z"/></svg>