<?xml version="1.0" encoding="UTF-8"?><svg id="a" xmlns="http://www.w3.org/2000/svg" viewBox="0 0 129.57 141.528"><rect x="89.466" y="72.186" width="31.026" height="5" fill="#1d1d1b"/><rect x="92.346" y="63.241" width="28.146" height="5" fill="#1d1d1b"/><rect x="43.914" y="116.411" width="76.213" height="5" fill="#1d1d1b"/><rect x="43.914" y="125.356" width="76.16" height="5" fill="#1d1d1b"/><rect x="85.866" y="81.131" width="34.602" height="5" fill="#1d1d1b"/><path d="M129.57,21.351L108.222.003l-.002.002v-.005H34.472v14.826h4.994V4.994h63.754v21.356h21.356v110.184H39.466v-28.348h-4.994v33.342h95.099V21.351h0ZM108.219,21.351V7.05l14.301,14.301h-14.301Z" fill="#1d1d1b"/><path d="M16.122,37.44c-5.061,0-9.179-4.118-9.179-9.179s4.118-9.179,9.179-9.179,9.179,4.118,9.179,9.179-4.118,9.179-9.179,9.179ZM16.122,23.554c-2.596,0-4.708,2.112-4.708,4.708s2.112,4.708,4.708,4.708,4.708-2.112,4.708-4.708-2.112-4.708-4.708-4.708Z" fill="#1d1d1b"/><path d="M36.951,63.477c-.609,0-1.181-.243-1.608-.683h-.001s-5.874-6.101-5.874-6.101c-2.269-2.277-2.258-6,.031-8.292l5.847-6.069c.866-.889,2.284-.913,3.164-.057.886.851.914,2.269.06,3.159l-4.715,4.892h20.458c1.233,0,2.236,1.003,2.236,2.236s-1.003,2.236-2.236,2.236h-20.462l4.714,4.892c.414.431.635.997.624,1.594-.012.598-.255,1.155-.686,1.568-.415.403-.966.625-1.551.625Z" fill="#1d1d1b"/><path d="M47.363,80.835c-.584,0-1.136-.223-1.553-.626-.887-.853-.915-2.271-.062-3.16l4.715-4.893h-20.458c-1.233,0-2.236-1.003-2.236-2.236s1.003-2.236,2.236-2.236h20.462l-4.714-4.891c-.414-.432-.635-.998-.624-1.595.012-.598.255-1.155.686-1.568.878-.853,2.296-.828,3.158.057l.002.002,5.874,6.099c2.269,2.277,2.258,6-.031,8.292l-5.847,6.068c-.423.441-.995.685-1.609.685Z" fill="#1d1d1b"/><path d="M68.195,37.44c-5.061,0-9.179-4.118-9.179-9.179s4.118-9.179,9.179-9.179,9.179,4.118,9.179,9.179-4.117,9.179-9.179,9.179ZM68.195,23.554c-2.596,0-4.707,2.112-4.707,4.708s2.111,4.708,4.707,4.708,4.707-2.112,4.707-4.708-2.111-4.708-4.707-4.708Z" fill="#1d1d1b"/><path d="M23.065,103.4c-1.232,0-2.235-1.003-2.235-2.236v-22.125c-.411.04-.825.061-1.236.061h-6.943c-.427,0-.837-.045-1.236-.1v22.164c0,1.233-1.003,2.236-2.236,2.236s-2.235-1.003-2.235-2.236v-23.473c-4.229-2.156-6.943-6.534-6.943-11.243v-13.886c0-6.976,5.675-12.65,12.65-12.65h6.943c2.227,0,4.414.586,6.326,1.696.519.299.889.781,1.044,1.358.154.577.074,1.18-.227,1.697-.302.519-.788.889-1.369,1.042-.577.153-1.176.071-1.687-.23-1.237-.713-2.651-1.091-4.086-1.091h-6.943c-4.51,0-8.179,3.669-8.179,8.179v13.886c0,4.51,3.669,8.179,8.179,8.179h6.943c.936,0,1.853-.156,2.725-.465.69-.24,1.451-.133,2.036.283.592.418.946,1.1.946,1.823v24.895c0,1.233-1.003,2.236-2.236,2.236Z" fill="#1d1d1b"/><path d="M75.135,103.4c-1.232,0-2.235-1.003-2.235-2.236v-22.164c-.399.055-.81.1-1.236.1h-6.943c-.411,0-.825-.021-1.236-.061v22.125c0,1.233-1.003,2.236-2.235,2.236s-2.236-1.003-2.236-2.236v-24.895c0-.724.354-1.405.947-1.824.589-.414,1.349-.521,2.032-.283.875.31,1.792.466,2.728.466h6.943c4.511,0,8.18-3.669,8.18-8.179v-13.886c0-4.51-3.669-8.179-8.18-8.179h-6.943c-1.617,0-3.179.471-4.517,1.361-.503.332-1.103.448-1.689.329-.583-.119-1.083-.458-1.411-.953-.68-1.022-.402-2.413.622-3.097,2.08-1.382,4.5-2.112,6.999-2.112h6.943c6.974.002,12.646,5.676,12.646,12.65v13.886c0,4.708-2.715,9.086-6.942,11.243v23.473c0,1.233-1.003,2.236-2.236,2.236Z" fill="#1d1d1b"/></svg>