<?xml version="1.0" encoding="UTF-8"?><svg id="a" xmlns="http://www.w3.org/2000/svg" viewBox="0 0 142.091 142.091"><path d="M125.042.273c4.499,0,8.768,1.712,11.985,4.787,6.594,6.611,6.594,17.367.002,23.976L62.747,103.318c-5.253,5.282-12.539,8.311-19.988,8.311h-.086s-8.182,0-8.182,0c-2.222,0-4.029-1.807-4.029-4.029v-8.188c-.021-7.479,3.008-14.794,8.315-20.072L113.022,5.094c3.252-3.109,7.521-4.821,12.02-4.821M38.52,103.571h4.158c5.422-.014,10.526-2.127,14.376-5.953L131.334,23.337c3.458-3.467,3.458-9.109-.036-12.611-1.693-1.617-3.915-2.508-6.257-2.508s-4.563.891-6.29,2.541L44.469,85.041c-3.822,3.846-5.935,8.949-5.949,14.376v4.153" fill="#1d1d1b"/><path d="M83.486,0c2.222,0,4.029,1.807,4.029,4.029s-1.807,4.029-4.029,4.029H28.399c-11.216,0-20.34,9.125-20.34,20.34v85.293c0,11.216,9.125,20.34,20.34,20.34h62.987v-26.433c0-8.94,7.274-16.214,16.214-16.214h26.433v-32.653c0-2.222,1.807-4.029,4.029-4.029s4.029,1.807,4.029,4.029v38.777c.018,7.48-3.013,14.794-8.322,20.073l-16.185,16.197c-5.255,5.282-12.543,8.311-19.993,8.311h-.087s-69.104,0-69.104,0c-15.642-.019-28.382-12.759-28.401-28.399V28.401C.019,12.759,12.759.019,28.399,0h55.087M99.444,134.058l2.504-.548c3.771-.825,7.208-2.703,9.943-5.43l16.214-16.202c2.707-2.735,4.582-6.165,5.421-9.921l.562-2.513h-26.488c-4.497,0-8.156,3.659-8.156,8.156v26.458" fill="#1d1d1b"/></svg>