<?xml version="1.0" encoding="UTF-8"?><svg id="a" xmlns="http://www.w3.org/2000/svg" viewBox="0 0 133.879 146.5"><path d="M85.523,39.106h-26.149V13.354h26.149v25.753ZM64.374,34.106h16.149v-15.753h-16.149v15.753Z" fill="#1d1d1b"/><path d="M85.805,68.417h-18.756v-15.667h18.756v15.667ZM72.049,63.417h8.756v-5.667h-8.756v5.667Z" fill="#1d1d1b"/><path d="M121.133,68.417h-29.511v-15.667h29.511v15.667ZM96.622,63.417h19.511v-5.667h-19.511v5.667Z" fill="#1d1d1b"/><path d="M121.133,89.19h-29.511v-15.667h29.511v15.667ZM96.622,84.19h19.511v-5.667h-19.511v5.667Z" fill="#1d1d1b"/><path d="M121.133,109.962h-29.511v-15.666h29.511v15.666ZM96.622,104.962h19.511v-5.666h-19.511v5.666Z" fill="#1d1d1b"/><path d="M85.805,89.19h-18.756v-15.667h18.756v15.667ZM72.049,84.19h8.756v-5.667h-8.756v5.667Z" fill="#1d1d1b"/><path d="M85.805,109.962h-18.756v-15.666h18.756v15.666ZM72.049,104.962h8.756v-5.666h-8.756v5.666Z" fill="#1d1d1b"/><rect x="91.248" y="13.354" width="29.938" height="5" fill="#1d1d1b"/><rect x="91.248" y="23.73" width="29.938" height="5" fill="#1d1d1b"/><rect x="91.248" y="34.106" width="29.938" height="5" fill="#1d1d1b"/><polygon points="130.91 141.695 35.7 141.695 35.7 126.25 40.7 126.25 40.7 136.695 125.91 136.695 125.91 5 40.7 5 40.7 15.444 35.7 15.444 35.7 0 130.91 0 130.91 141.695" fill="#1d1d1b"/><rect x="67.06" y="116.578" width="54.126" height="5" fill="#1d1d1b"/><rect x="45.026" y="125.439" width="76.16" height="5" fill="#1d1d1b"/><path d="M38.2,50.417c-6.295,0-11.417-5.122-11.417-11.417v-3.931c0-6.295,5.122-11.417,11.417-11.417s11.417,5.122,11.417,11.417v3.931c0,6.295-5.122,11.417-11.417,11.417ZM38.2,28.652c-3.538,0-6.417,2.878-6.417,6.417v3.931c0,3.538,2.878,6.417,6.417,6.417s6.417-2.878,6.417-6.417v-3.931c0-3.539-2.878-6.417-6.417-6.417Z" fill="#1d1d1b"/><path d="M41.249,52.75h-6.098c-9.194,0-16.673,7.479-16.673,16.673v12.878c0,5.459,4.001,9.99,9.222,10.846v22.408h5v-22.25h11v22.25h5v-22.408c5.221-.856,9.222-5.387,9.222-10.846v-12.878c0-9.193-7.479-16.673-16.673-16.673ZM52.922,82.301c0,3.311-2.693,6.004-6.004,6.004h-17.437c-3.311,0-6.004-2.693-6.004-6.004v-12.878c0-6.437,5.237-11.673,11.673-11.673h6.098c6.437,0,11.673,5.236,11.673,11.673v12.878Z" fill="#1d1d1b"/><rect x="40.466" y="64.917" width="5.417" height="5.417" fill="#1d1d1b"/></svg>