<?xml version="1.0" encoding="UTF-8"?><svg id="a" xmlns="http://www.w3.org/2000/svg" viewBox="0 0 117.634 141.528"><rect x="31.978" y="116.411" width="76.213" height="5" fill="#1d1d1b"/><rect x="31.978" y="107.466" width="76.213" height="5" fill="#1d1d1b"/><rect x="70.93" y="95.486" width="37.261" height="5" fill="#1d1d1b"/><rect x="70.93" y="85.646" width="37.261" height="5" fill="#1d1d1b"/><rect x="80.41" y="75.806" width="27.781" height="5" fill="#1d1d1b"/><rect x="80.41" y="65.966" width="27.781" height="5" fill="#1d1d1b"/><rect x="80.41" y="56.126" width="27.781" height="5" fill="#1d1d1b"/><rect x="31.978" y="125.356" width="76.16" height="5" fill="#1d1d1b"/><path d="M117.634,21.351L96.285.003l-.002.002v-.005H22.535v27.066h4.994V4.994h63.754v21.356h21.356v110.184H27.529v-43.948h-4.994v48.942h95.099V21.351h0ZM96.283,21.351V7.05l14.301,14.301h-14.301Z" fill="#1d1d1b"/><polygon points="46.453 69.276 42.918 72.811 51.92 81.814 51.972 82.995 50.791 82.943 41.788 73.941 38.253 77.476 48.63 87.854 57.205 88.228 56.831 79.654 46.453 69.276" fill="#1d1d1b"/><polygon points="18.998 58.221 26.528 65.752 30.063 62.216 19.686 51.839 7.146 59.887 7.071 59.813 28.79 38.094 28.864 38.169 20.815 50.709 31.193 61.086 34.728 57.551 27.198 50.021 35.247 37.481 28.79 31.024 0 59.813 6.457 66.27 18.998 58.221" fill="#1d1d1b"/><path d="M16.006,87.998l.375-8.574,29.632-29.633-8.048-12.541,6.457-6.457,28.789,28.79-6.457,6.457-12.54-8.048-29.633,29.632-8.574.374ZM21.29,81.584l-.051,1.182,1.181-.052,31.105-31.105,12.541,8.048.074-.074-21.718-21.718-.074.074,8.048,12.541-31.105,31.104Z" fill="#1d1d1b"/></svg>