<?xml version="1.0" encoding="UTF-8"?><svg id="a" xmlns="http://www.w3.org/2000/svg" viewBox="0 0 127.156 141.528"><rect x="41.5" y="116.411" width="76.213" height="5" fill="#1d1d1b"/><rect x="41.5" y="125.356" width="76.16" height="5" fill="#1d1d1b"/><rect x="87.052" y="72.186" width="31.026" height="5" fill="#1d1d1b"/><rect x="89.932" y="63.241" width="28.146" height="5" fill="#1d1d1b"/><rect x="83.452" y="81.131" width="34.602" height="5" fill="#1d1d1b"/><path d="M127.156,21.351L105.808.003l-.002.002v-.005H32.058v14.826h4.994V4.994h63.754v21.356h21.356v110.184H37.052v-28.348h-4.994v33.342h95.099V21.351h0ZM105.805,21.351V7.05l14.301,14.301h-14.301Z" fill="#1d1d1b"/><path d="M11.672,34.014c19.863-19.863,53.567-13.422,64.857,12.125,14.172,32.065-17.203,65.634-50.15,53.77C-1.005,90.048-9.031,54.716,11.672,34.014ZM37.101,28.775C12.555,30.607-1.512,58.235,11.036,79.455c12.962,21.918,44.829,21.859,57.841,0,14.037-23.583-4.612-52.708-31.776-50.68Z" fill="#1d1d1b"/><path d="M19.042,61.897l1.802-4.935,4.445-.181c1.18-4.195,3.411-8.123,6.96-10.737,6.725-4.952,15.571-4.67,23.074-1.665l-.686,7.061c-4.27-1.52-8.634-3.082-13.241-2.081-4,.869-6.633,3.703-7.874,7.511h15.485l-1.81,5.028h-14.479l.201,4.223h14.882l-1.81,5.43h-11.262c3.38,5.782,10.363,5.643,16.087,3.92.53-.159,3.666-1.477,3.821-1.306-.005,2.077.703,4.339.797,6.366.033.715-.975.994-1.548,1.229-3.406,1.398-8.964,1.921-12.598,1.432-6.663-.895-12.771-5.217-15.006-11.641h-9.05l1.81-5.43h5.832c.053-.147-.201-.24-.201-.302v-3.922h-5.631Z" fill="#1d1d1b"/></svg>